<svg width="55" height="90" viewBox="0 0 55 90" fill="none" xmlns="http://www.w3.org/2000/svg">
<path d="M27.5 0C12.309 0 0 12.546 0 28.0863C0 54.9568 27.5 90 27.5 90C27.5 90 55 54.9512 55 28.0863C55 12.5516 42.691 0 27.5 0V0ZM27.5 43.6266C23.5615 43.6266 19.7844 42.0255 16.9995 39.1755C14.2145 36.3256 12.65 32.4601 12.65 28.4296C12.65 24.3991 14.2145 20.5337 16.9995 17.6837C19.7844 14.8338 23.5615 13.2326 27.5 13.2326C31.4385 13.2326 35.2156 14.8338 38.0005 17.6837C40.7855 20.5337 42.35 24.3991 42.35 28.4296C42.35 32.4601 40.7855 36.3256 38.0005 39.1755C35.2156 42.0255 31.4385 43.6266 27.5 43.6266Z" fill="#F83F3F"/>
</svg>
