<svg width="83" height="38" viewBox="0 0 83 38" fill="none" xmlns="http://www.w3.org/2000/svg">
<path d="M14.6606 32.8827C11.977 32.8827 9.78533 34.0098 7.80242 34.9306C7.05697 35.2627 6.02824 35.8112 4.78582 35.8917C4.16461 35.9319 3.58812 35.7659 3.13588 35.5143C2.14691 35.0111 1.56545 34.0098 1.56545 33.089C1.56545 32.0021 2.18667 31.0813 3.09115 30.1202C4.37333 28.7415 5.40206 26.8596 5.69527 24.5601C2.14691 23.2267 0 20.424 0 16.8263C0 11.6838 4.33855 8.21185 10.5705 8.21185C12.469 8.21185 14.1636 8.54898 15.5701 9.13267H22.6718C24.0335 9.13267 25.1069 10.0937 25.1069 11.5982C25.1069 13.1027 24.0732 14.0638 22.6718 14.0638H20.0676C20.4801 14.9393 20.6888 15.8602 20.6888 16.8212C20.6888 21.2542 17.5927 24.5551 12.5137 25.2243C11.8527 25.3501 11.1918 25.3903 10.491 25.3501C9.9543 27.1917 8.96533 28.7365 8.01115 29.8233L8.13539 29.9894C10.0785 28.6509 13.0107 27.6496 16.3105 27.6496C21.0168 27.6496 24.7789 30.9102 24.7789 35.1369C24.7789 36.9333 23.4172 37.8994 21.5983 37.8994C20.3161 37.8994 19.6999 37.0641 19.5309 36.2691C19.1234 34.3469 17.22 32.8827 14.6606 32.8827ZM15.5303 16.8263C15.5303 14.567 13.6319 13.0625 10.5755 13.0625C7.51915 13.0625 5.62073 14.567 5.62073 16.8263C5.62073 19.0402 7.51915 20.5498 10.5755 20.5498C13.6269 20.5498 15.5303 19.0453 15.5303 16.8263Z" fill="#24423A"/>
<path d="M33.3318 29.5819C29.1622 29.5819 25.8971 26.8647 25.8971 22.9349C25.8971 19.0051 28.9137 16.2024 33.4958 16.2024C36.0552 16.2024 38.7388 17.1232 40.8907 18.4616V16.1621C40.8907 14.1544 39.4047 13.1531 36.9249 13.1531C35.2749 13.1531 33.8685 13.3644 31.8458 13.9481C31.4333 14.0739 30.8569 14.3255 30.0716 14.3255C28.9584 14.3255 27.885 13.3242 27.885 11.7744C27.885 10.8536 28.5857 9.93276 29.7039 9.56041C31.5626 8.85093 34.0822 8.26221 37.0988 8.26221C43.4202 8.26221 46.4766 10.8536 46.4766 16.2074V20.3485C46.4766 23.8205 47.4656 24.8218 47.4656 26.6634C47.4656 27.9616 46.5561 29.2145 44.7819 29.2145C42.799 29.2145 42.0138 27.8358 41.3976 25.4508H41.3578C39.36 27.9918 36.6366 29.5819 33.3318 29.5819ZM34.9419 20.0869C32.7553 20.0869 31.4333 21.0882 31.4333 22.5525C31.4333 24.0972 32.959 25.018 34.9867 25.018C37.2181 25.018 39.4495 23.6393 40.8907 21.8832C39.1115 20.7561 36.8006 20.0869 34.9419 20.0869Z" fill="#24423A"/>
<path d="M51.2723 2.85302C51.2723 1.2831 52.5744 0 54.1498 0C55.7302 0 56.9974 1.2831 56.9974 2.85302C56.9974 4.45313 55.7302 5.70604 54.1498 5.70604C52.5694 5.70604 51.2723 4.45313 51.2723 2.85302Z" fill="#6BBD5F"/>
<path d="M51.2723 35.147C51.2723 33.577 52.5744 32.2939 54.1498 32.2939C55.7302 32.2939 56.9974 33.577 56.9974 35.147C56.9974 36.7471 55.7302 38 54.1498 38C52.5694 38 51.2723 36.7471 51.2723 35.147Z" fill="#24423A"/>
<path d="M54.1548 29.2045C52.3806 29.2045 51.1382 28.2031 51.1382 26.5276V11.2662C51.1382 9.63587 52.3756 8.62952 54.1548 8.62952C55.929 8.62952 57.1714 9.63084 57.1714 11.2662V26.5276C57.1714 28.2031 55.929 29.2045 54.1548 29.2045Z" fill="#6BBD5F"/>
<path d="M67.8761 29.5819C63.7066 29.5819 60.4415 26.8647 60.4415 22.9349C60.4415 19.0051 63.4581 16.2024 68.0401 16.2024C70.5995 16.2024 73.2832 17.1232 75.435 18.4616V16.1621C75.435 14.1544 73.9491 13.1531 71.4692 13.1531C69.8193 13.1531 68.4129 13.3644 66.3902 13.9481C65.9777 14.0739 65.4012 14.3255 64.616 14.3255C63.5028 14.3255 62.4293 13.3242 62.4293 11.7744C62.4293 10.8536 63.1301 9.93276 64.2483 9.56041C66.1069 8.85093 68.6266 8.26221 71.6432 8.26221C77.9646 8.26221 81.021 10.8536 81.021 16.2074V20.3485C81.021 23.8205 82.0099 24.8218 82.0099 26.6634C82.0099 27.9616 81.1005 29.2145 79.3263 29.2145C77.3434 29.2145 76.5582 27.8358 75.9419 25.4508H75.9022C73.9044 27.9918 71.176 29.5819 67.8761 29.5819ZM69.4863 20.0869C67.2997 20.0869 65.9777 21.0882 65.9777 22.5525C65.9777 24.0972 67.5034 25.018 69.531 25.018C71.7624 25.018 73.9938 23.6393 75.435 21.8832C73.6559 20.7561 71.345 20.0869 69.4863 20.0869Z" fill="#6BBD5F"/>
</svg>
